<svg xmlns="http://www.w3.org/2000/svg" viewBox="0 0 1200 1200" role="img" aria-labelledby="title desc">
  <title id="title">Shut Up gothic logo</title>
  <desc id="desc">Dark, intimidating word mark with skull and flames, rendered in black and white.</desc>
  <defs>
    <linearGradient id="inkFade" x1="0" y1="0" x2="0" y2="1">
      <stop offset="0%" stop-color="#ffffff" stop-opacity="0.95" />
      <stop offset="70%" stop-color="#f2f2f2" stop-opacity="0.9" />
      <stop offset="100%" stop-color="#d9d9d9" stop-opacity="0.8" />
    </linearGradient>
    <filter id="grit" x="-20%" y="-20%" width="140%" height="140%">
      <feTurbulence type="fractalNoise" baseFrequency="0.9" numOctaves="3" seed="7" result="noise" />
      <feColorMatrix type="matrix" values="0 0 0 0 0  0 0 0 0 0  0 0 0 0 0  0 0 0 -1.1 1" result="alpha" />
      <feComposite in="SourceGraphic" in2="alpha" operator="out" />
    </filter>
    <filter id="roughen">
      <feTurbulence type="fractalNoise" baseFrequency="0.7" numOctaves="2" seed="11" result="noise" />
      <feDisplacementMap in="SourceGraphic" in2="noise" scale="18" xChannelSelector="R" yChannelSelector="G" />
    </filter>
    <clipPath id="bladeClip">
      <path d="M250 870 C 300 760 370 720 470 680 C 600 620 750 610 900 680 C 995 725 1040 800 1060 880 L 250 870 Z" />
    </clipPath>
    <g id="flame">
      <path d="M0 0 C20 -60 60 -120 40 -190 C80 -140 130 -80 120 -10 C110 40 70 80 10 110 Z" fill="#f9f9f9" />
    </g>
  </defs>
  <rect width="1200" height="1200" fill="#050505" />
  <g transform="translate(150 200)">
    <g transform="translate(420 110) scale(0.9)" opacity="0.65">
      <use href="#flame" transform="translate(0 0) rotate(-10)" filter="url(#roughen)" />
      <use href="#flame" transform="translate(120 -30) scale(0.9) rotate(5)" filter="url(#roughen)" />
      <use href="#flame" transform="translate(230 10) scale(1.05) rotate(-8)" filter="url(#roughen)" />
      <use href="#flame" transform="translate(340 -40) scale(0.85) rotate(12)" filter="url(#roughen)" />
    </g>
    <g transform="translate(160 260)" filter="url(#roughen)">
      <path d="M390 0 H450 L520 140 L590 0 H650 L540 210 H470 Z" fill="url(#inkFade)" stroke="#f9f9f9" stroke-width="18" />
      <path d="M140 0 H240 C320 0 360 40 360 110 C360 180 320 220 240 220 H190 V360 H140 Z M240 170 C270 170 290 150 290 110 C290 70 270 50 240 50 H190 V170 Z" fill="#f9f9f9" />
      <path d="M720 0 H820 C900 0 940 40 940 110 C940 150 920 190 880 210 L960 360 H900 L840 230 H770 V360 H720 Z M820 170 C850 170 870 150 870 110 C870 70 850 50 820 50 H770 V170 Z" fill="#f9f9f9" />
      <path d="M10 0 H110 L230 360 H170 L140 280 H50 L20 360 H-40 Z M90 240 L120 160 L150 240 Z" fill="#f9f9f9" />
      <path d="M1020 0 H1150 V50 H1160 C1185 50 1200 70 1200 100 C1200 127 1185 150 1160 150 H1150 V360 H1100 V150 H1020 Z" fill="#f9f9f9" />
    </g>
    <g transform="translate(325 500)">
      <path d="M160 0 C220 -60 320 -60 380 0 C440 60 440 170 380 230 L320 290 H220 L160 230 C100 170 100 60 160 0 Z" fill="#f9f9f9" />
      <path d="M270 110 C250 110 230 130 230 150 C230 170 250 190 270 190 C290 190 310 170 310 150 C310 130 290 110 270 110 Z" fill="#050505" />
      <path d="M220 220 C260 250 280 250 320 220" fill="none" stroke="#050505" stroke-width="20" stroke-linecap="round" />
      <path d="M110 -40 L90 -120 L130 -120 L150 -50 C210 -120 330 -120 390 -50 L410 -120 L450 -120 L430 -40 C500 20 520 140 470 210 C440 260 390 290 320 300 C250 310 170 280 130 220 C70 140 80 30 110 -40 Z" fill="none" stroke="#f9f9f9" stroke-width="14" stroke-linejoin="round" />
    </g>
    <g clip-path="url(#bladeClip)" opacity="0.5" filter="url(#grit)">
      <rect x="200" y="680" width="760" height="220" fill="#f9f9f9" />
    </g>
    <g stroke="#f9f9f9" stroke-width="8" stroke-linecap="round" opacity="0.7">
      <path d="M210 650 C260 600 330 580 410 600" />
      <path d="M850 610 C930 580 990 580 1050 630" />
      <path d="M300 770 C360 830 430 850 520 830" />
      <path d="M700 840 C780 860 850 840 910 790" />
    </g>
  </g>
</svg>
